<?xml version="1.0" encoding="utf-8"?>
<!-- Generator: Adobe Illustrator 19.1.0, SVG Export Plug-In . SVG Version: 6.00 Build 0)  -->
<svg version="1.1" xmlns="http://www.w3.org/2000/svg" xmlns:xlink="http://www.w3.org/1999/xlink" x="0px" y="0px"
	 viewBox="-501 245 21 11" style="enable-background:new -501 245 21 11;" xml:space="preserve">
<style type="text/css">
	.st0{fill:none;enable-background:new    ;}
	.st1{fill:#777777;}
</style>
<g id="Layer_1">
	<path class="st0" d="z"/>
	<g>
		<path class="st1" d="M-491.1,246v0.8h-8.9V246H-491.1 M-490.1,245H-501v2.8h10.9V245L-490.1,245z"/>
	</g>
	<g>
		<path class="st1" d="M-489.4,254.2v0.8H-500v-0.8H-489.4 M-488.4,253.2H-501v2.8h12.6V253.2L-488.4,253.2z"/>
	</g>
	<g>
		<path class="st1" d="M-495.2,249.9v0.8h-4.8v-0.8H-495.2 M-494.2,248.9h-6.8v2.8h6.8V248.9L-494.2,248.9z"/>
	</g>
	<g>
		<path class="st1" d="M-485.1,245.9v3v1h1h3.1v1h-3.1h-1v1v3.1h-1v-3.1v-1h-1h-3.1v-1h3.1h1v-1v-3H-485.1 M-484.1,244.9h-3v4h-4.1
			v3h4.1v4.1h3v-4.1h4.1v-3h-4.1V244.9L-484.1,244.9z"/>
	</g>
</g>
<g id="Layer_2">
</g>
</svg>
